<?xml version="1.0" encoding="utf-8"?> <!-- Generator: IcoMoon.io --> <!DOCTYPE svg PUBLIC "-//W3C//DTD SVG 1.1//EN" "http://www.w3.org/Graphics/SVG/1.1/DTD/svg11.dtd"> <svg fill="#000000" xmlns:xlink="http://www.w3.org/1999/xlink" xmlns="http://www.w3.org/2000/svg" width="16" height="16" viewBox="0 0 16 16"><g><path d="M 5.5,0L 2.5,0 C 2.224,0, 2,0.224, 2,0.5l0,15 c0,0.277, 0.224,0.5, 0.5,0.5l 3,0 c 0.277,0, 0.5-0.224, 0.5-0.5L 6,0.5 C 6,0.224, 5.777,0, 5.5,0z M 13.5,0l-3,0 c-0.277,0-0.5,0.224-0.5,0.5l0,15 c0,0.277, 0.224,0.5, 0.5,0.5l 3,0 c 0.277,0, 0.5-0.224, 0.5-0.5L 14,0.5 C 14,0.224, 13.777,0, 13.5,0 z"></path></g></svg>